<?xml version="1.0" encoding="UTF-8"?><svg id="Layer_2" xmlns="http://www.w3.org/2000/svg" viewBox="0 0 30 24.76"><defs><style>.cls-1{fill:#fff;}</style></defs><g id="weather"><g><path class="cls-1" d="M12.91,22.67c0,1.17-.92,2.1-2.1,2.1-1.09,0-2.01-.92-2.01-2.1s1.84-3.77,2.01-3.77c.25,0,2.1,2.6,2.1,3.77h0Z"/><path class="cls-1" d="M24.58,22.67c0,1.17-.92,2.1-2.1,2.1s-2.1-.92-2.1-2.1,1.93-3.77,2.1-3.77,2.1,2.6,2.1,3.77h0Z"/><path class="cls-1" d="M18.7,20.24c0,1.17-.92,2.1-2.01,2.1-1.17,0-2.1-.92-2.1-2.1,0-1.09,1.93-3.77,2.1-3.77s2.01,2.68,2.01,3.77h0Z"/><path class="cls-1" d="M1.97,15.15H27.51c.6,0,1.19-.26,1.54-.74,.53-.74,.87-1.65,.94-2.66,.14-2.08-1.39-4.17-3.48-4.71-.51-.13-1.04-.2-1.56-.28-.23-.03-.31-.12-.33-.35-.02-.35-.09-.7-.13-1.05C24.17,2.28,21.33-.17,18.23,0c-2.43,.14-4.2,1.3-5.33,3.44-.17,.32-.29,.78-.56,.91-.27,.13-.71-.07-1.07-.14-2.64-.52-5.05,.98-5.65,3.57-.15,.65-.22,1.31-.32,2-.47-.06-.9-.12-1.33-.18C1.58,9.29-.5,11.46,.11,13.78c0,.03,.01,.05,.02,.08,.23,.79,1.02,1.29,1.84,1.29Z"/></g></g></svg>