<?xml version="1.0" encoding="UTF-8"?><svg id="Layer_2" xmlns="http://www.w3.org/2000/svg" viewBox="0 0 33 18.02"><defs><style>.cls-1{fill:#fff;}</style></defs><g id="weather"><path class="cls-1" d="M5.82,10.76c-.59-.08-1.12-.15-1.66-.22C1.63,10.21-.5,12.61,.1,15.09c.44,1.81,1.91,2.93,3.89,2.93,7.84,0,15.67,0,23.51,0,.32,0,.63-.03,.95-.06,2.51-.31,4.37-2.37,4.55-5.03,.15-2.29-1.53-4.58-3.83-5.18-.56-.15-1.14-.22-1.72-.3-.25-.03-.34-.13-.36-.38-.03-.39-.1-.78-.14-1.17C26.6,2.55,23.36-.2,20.01,.01c-2.65,.17-4.59,1.44-5.83,3.78-.19,.35-.32,.86-.62,1-.3,.14-.78-.08-1.17-.15-2.9-.58-5.55,1.08-6.22,3.92-.17,.71-.24,1.45-.36,2.2Z"/></g></svg>