<?xml version="1.0" encoding="UTF-8"?><svg id="Layer_2" xmlns="http://www.w3.org/2000/svg" viewBox="0 0 11.73 27"><defs><style>.cls-1{fill:#fff;}</style></defs><g id="weather"><g><path class="cls-1" d="M6.29,0c.12,.03,.25,.07,.37,.1,1.52,.37,2.61,1.67,2.63,3.22,.03,1.7,.01,3.41,.01,5.12,0,2.54,0,5.08,0,7.62,0,.23,.07,.37,.24,.51,1.62,1.33,2.34,3.07,2.17,5.14-.28,3.35-3.46,5.77-6.8,5.21C2.2,26.46,.11,24.14,0,21.42c-.08-1.96,.65-3.58,2.16-4.84,.19-.16,.26-.31,.26-.55,0-4.15,0-8.3,0-12.45,0-1.52,.68-2.62,2.05-3.28C4.77,.16,5.12,.1,5.44,0h.84Zm1.54,10c0-2.08,0-4.17,0-6.25,0-.17,0-.34-.01-.5-.09-.75-.49-1.3-1.18-1.59-.7-.3-1.38-.21-1.98,.27-.55,.43-.75,1.01-.74,1.69,0,4.32,0,8.63,0,12.95,0,.4-.12,.7-.47,.91-.08,.04-.15,.1-.21,.15-1.03,.78-1.63,1.83-1.73,3.1-.24,2.85,2.16,5.11,5.01,4.75,1.95-.25,3.61-1.98,3.73-3.93,.11-1.69-.51-3.06-1.91-4.03-.36-.25-.51-.56-.51-1,.01-2.17,0-4.34,0-6.51Z"/><path class="cls-1" d="M6.59,11.16c0,2.43,0,4.85,0,7.28,0,.22,.05,.33,.27,.42,1.03,.42,1.63,1.52,1.46,2.65-.16,1.1-1.06,1.95-2.17,2.08-1.26,.15-2.4-.68-2.7-1.89-.29-1.17,.35-2.42,1.5-2.87,.2-.08,.2-.2,.2-.36,0-4.84,0-9.69,0-14.53,0-.14,0-.28,.03-.42,.06-.34,.35-.57,.69-.57,.34,0,.63,.22,.7,.56,.03,.13,.03,.26,.03,.39,0,2.42,0,4.83,0,7.25Z"/></g></g></svg>