<?xml version="1.0" encoding="UTF-8"?><svg id="Layer_2" xmlns="http://www.w3.org/2000/svg" viewBox="0 0 24.5 28.07"><defs><style>.cls-1{fill:#fff;}</style></defs><g id="weather"><path class="cls-1" d="M24.12,20.05c-.49-.29-.99-.57-1.48-.86l-1.82-1.05,1.29-.76c.47-.26,.94-.53,1.41-.79,.28-.16,.43-.44,.39-.74-.04-.31-.25-.54-.55-.62-.2-.05-.39,0-.65,.13-.61,.35-1.23,.69-1.84,1.04l-1.33,.75c-.15,.08-.29,.08-.43,0-1.29-.74-2.57-1.49-3.86-2.23l-1.48-.87,.39-.27,4.98-2.88c.2-.11,.35-.02,.4,0,1.09,.62,2.18,1.23,3.28,1.84,.08,.04,.14,.07,.21,.09,.36,.1,.73-.08,.87-.41,.15-.37,.01-.74-.34-.94l-2.66-1.53,.44-.32,2.77-1.6c.21-.12,.33-.27,.37-.47,.07-.33-.01-.58-.27-.76-.25-.19-.52-.21-.8-.05-.66,.38-1.32,.76-1.98,1.14l-1.26,.71-.07-.37c0-.07,0-.1,0-.12v-.77c.02-.56,.03-1.13,.04-1.69,.01-.44-.29-.79-.71-.8-.2,0-.38,.06-.52,.2-.14,.14-.23,.32-.23,.52-.02,1.22-.04,2.44-.06,3.65,0,.21-.09,.35-.28,.46-1.34,.77-2.68,1.54-4.02,2.32l-1.33,.77v-1.9c0-1.36,0-2.72,0-4.08,0-.37,.13-.6,.45-.78,.78-.45,1.55-.92,2.33-1.38l.65-.39c.19-.12,.33-.31,.36-.52,.04-.21-.02-.41-.15-.58-.24-.29-.64-.35-.98-.15l-2.66,1.58v-1.51c0-.77,0-1.53,0-2.3,0-.24-.11-.46-.3-.6-.19-.14-.42-.17-.64-.11-.33,.1-.52,.38-.52,.76l-.03,3.72-.53-.24-.61-.36c-.5-.3-1-.6-1.5-.9-.27-.16-.52-.16-.78,.01-.21,.14-.34,.36-.33,.61,0,.26,.15,.51,.39,.65,1.06,.63,2.12,1.27,3.18,1.9,.15,.09,.22,.21,.22,.39v6.15l-.36-.17c-.06-.03-.08-.04-.1-.05-1.66-.96-3.33-1.92-5-2.88-.2-.12-.21-.31-.21-.37l-.07-3.67c0-.42-.32-.74-.74-.74h0c-.41,0-.72,.34-.72,.75,0,.43,.01,.87,.02,1.3v.71c.02,.13,.02,.25,.02,.39v.6l-.36-.18c-.07-.03-.09-.04-.12-.06l-1.13-.66c-.54-.32-1.09-.63-1.63-.94-.33-.19-.73-.12-.95,.17-.13,.17-.19,.38-.15,.58,.04,.22,.18,.4,.39,.53l3.28,1.91-.4,.29-2.29,1.29c-.23,.13-.35,.31-.38,.56-.03,.3,.07,.53,.32,.69,.25,.17,.5,.17,.77,.02,1.1-.62,2.2-1.24,3.3-1.86,.15-.08,.29-.08,.43,0,1.56,.9,3.13,1.81,4.69,2.71l.64,.38-.87,.5c-1.51,.87-3.02,1.74-4.53,2.62-.16,.09-.31,.09-.48,0-1.08-.61-2.15-1.21-3.23-1.81-.37-.21-.82-.09-1.02,.27-.2,.36-.07,.8,.3,1.01l2.67,1.51-.46,.29-2.77,1.6c-.3,.17-.45,.49-.38,.81,.05,.23,.2,.42,.41,.51,.22,.1,.47,.08,.69-.05l2.81-1.62s.05-.03,.09-.05l.36-.18,.04,.51-.04,2.54c0,.41,.3,.75,.71,.76,.21,0,.39-.07,.53-.2s.22-.32,.22-.52c.03-1.25,.05-2.5,.07-3.76,0-.17,.08-.29,.22-.38,1.45-.83,2.89-1.67,4.34-2.51l1.05-.6v.59c0,1.89,0,3.77,0,5.66,0,.2-.08,.35-.26,.46-1.06,.62-2.11,1.25-3.16,1.88-.28,.17-.41,.47-.35,.78,.05,.24,.2,.43,.41,.52,.22,.1,.48,.08,.7-.05,.34-.2,.68-.4,1.02-.61l1.64-.98v3.73c0,.26,.11,.49,.3,.63,.18,.14,.4,.18,.63,.12,.32-.09,.53-.38,.53-.73v-3.79l.5,.27,2.17,1.3c.21,.12,.41,.15,.61,.08,.32-.1,.48-.31,.51-.62,.03-.31-.1-.55-.38-.72l-.6-.36c-.85-.51-1.7-1.02-2.56-1.52-.17-.1-.25-.24-.25-.45,0-1.56,0-3.12,0-4.68v-1.49l1.19,.67c1.42,.82,2.85,1.64,4.27,2.46,.14,.08,.22,.21,.22,.38,.02,1.24,.05,2.47,.07,3.71,0,.41,.33,.73,.73,.73h.01c.2,0,.38-.08,.51-.22,.14-.14,.21-.34,.21-.55l-.05-2.57v-.39l.36,.1c.06,.03,.08,.04,.1,.05l2.23,1.29c.21,.12,.41,.24,.63,.35,.29,.15,.65,.07,.86-.18,.15-.17,.21-.38,.17-.6-.04-.22-.17-.4-.37-.52Z"/></g></svg>