<?xml version="1.0" encoding="UTF-8"?><svg id="Layer_2" xmlns="http://www.w3.org/2000/svg" viewBox="0 0 30 29.61"><defs><style>.cls-1{fill:#fff;}</style></defs><g id="weather"><g><path class="cls-1" d="M9.36,7.47c.26,.44,.82,.6,1.27,.34,.44-.26,.6-.82,.34-1.27l-2.36-4.1c-.26-.44-.82-.6-1.27-.34-.44,.26-.6,.82-.34,1.27l2.36,4.1Z"/><path class="cls-1" d="M2.25,8.94l4.1,2.36c.44,.26,1.01,.1,1.27-.34,.25-.44,.1-1.01-.34-1.27L3.18,7.33c-.44-.26-1.01-.1-1.27,.34-.25,.44-.1,1.01,.34,1.27Z"/><path class="cls-1" d="M14.81,6.59c.51,0,.93-.42,.93-.93V.93c0-.51-.42-.93-.93-.93s-.93,.42-.93,.93V5.66c0,.51,.42,.93,.93,.93Z"/><path class="cls-1" d="M19.04,7.62c.44,.25,1.01,.1,1.27-.34l2.36-4.1c.26-.44,.1-1.01-.34-1.27-.44-.25-1.01-.1-1.27,.34l-2.36,4.1c-.26,.44-.1,1.01,.34,1.27Z"/><path class="cls-1" d="M22.19,10.62c.26,.44,.82,.6,1.27,.34l4.1-2.36c.44-.26,.6-.82,.34-1.27-.26-.44-.82-.6-1.27-.34l-4.1,2.36c-.44,.26-.6,.82-.34,1.27Z"/><circle class="cls-1" cx="15" cy="14.81" r="6.37" transform="translate(-6.08 14.94) rotate(-45)"/><path class="cls-1" d="M6.59,14.81c0-.51-.42-.93-.93-.93H.93c-.51,0-.93,.42-.93,.93s.42,.93,.93,.93H5.66c.51,0,.93-.42,.93-.93Z"/><path class="cls-1" d="M7.62,18.65c-.26-.44-.82-.6-1.27-.34l-4.1,2.36c-.44,.26-.6,.82-.34,1.27,.26,.44,.82,.6,1.27,.34l4.1-2.36c.44-.26,.6-.82,.34-1.27Z"/><path class="cls-1" d="M27.55,21.01l-4.1-2.36c-.44-.26-1.01-.1-1.27,.34-.25,.44-.1,1.01,.34,1.27l4.1,2.36c.44,.26,1.01,.1,1.27-.34,.25-.44,.1-1.01-.34-1.27Z"/><path class="cls-1" d="M29.07,13.87h-4.73c-.51,0-.93,.42-.93,.93s.42,.93,.93,.93h4.73c.51,0,.93-.42,.93-.93s-.42-.93-.93-.93Z"/><path class="cls-1" d="M20.31,22.34c-.26-.44-.82-.6-1.27-.34-.44,.26-.6,.82-.34,1.27l2.36,4.1c.26,.44,.82,.6,1.27,.34,.44-.26,.6-.82,.34-1.27l-2.36-4.1Z"/><path class="cls-1" d="M14.81,23.02c-.51,0-.93,.42-.93,.93v4.73c0,.51,.42,.93,.93,.93s.93-.42,.93-.93v-4.73c0-.51-.42-.93-.93-.93Z"/><path class="cls-1" d="M10.62,21.8c-.44-.25-1.01-.1-1.27,.34l-2.36,4.1c-.26,.44-.1,1.01,.34,1.27,.44,.25,1.01,.1,1.27-.34l2.36-4.1c.26-.44,.1-1.01-.34-1.27Z"/></g></g></svg>