<?xml version="1.0" encoding="UTF-8"?><svg id="Layer_2" xmlns="http://www.w3.org/2000/svg" viewBox="0 0 30 24.6"><defs><style>.cls-1{fill:#fff;}</style></defs><g id="weather"><g><path class="cls-1" d="M26.6,15.5c-.5-.13-1.01-.2-1.52-.27-.22-.03-.31-.12-.32-.34-.02-.35-.09-.69-.13-1.04-.3-2.95-3.16-5.39-6.13-5.21-2.35,.15-4.06,1.28-5.16,3.35-.17,.31-.28,.76-.55,.89-.27,.13-.69-.07-1.04-.14-2.57-.51-4.92,.96-5.51,3.47-.15,.63-.21,1.28-.32,1.95-.52-.07-1-.14-1.47-.2-2.24-.29-4.13,1.84-3.59,4.03,.39,1.61,1.7,2.59,3.44,2.59,6.94,0,13.88,0,20.83,0,.28,0,.56-.02,.84-.06,2.22-.27,3.87-2.1,4.03-4.45,.14-2.03-1.36-4.06-3.4-4.59Z"/><path class="cls-1" d="M15.95,7.64c.04,.06,.09,.11,.14,.15,.49-.17,1.01-.29,1.55-.36l2.17-1.25c.32-.18,.43-.59,.25-.91-.18-.32-.59-.43-.91-.25l-2.94,1.7c-.32,.18-.43,.59-.25,.91Z"/><path class="cls-1" d="M10.78,6.06c-2.53,0-4.58,2.05-4.58,4.58,0,.78,.21,1.5,.56,2.15,.99-.89,2.3-1.43,3.75-1.43,.4,0,.81,.04,1.21,.12,.11,.02,.23,.05,.34,.08,.05-.11,.1-.22,.15-.32,.66-1.24,1.51-2.18,2.56-2.84-.78-1.4-2.26-2.36-3.98-2.36Z"/><path class="cls-1" d="M13.69,5.48c.32,.18,.73,.07,.91-.25l1.7-2.94c.18-.32,.07-.73-.25-.91-.32-.18-.73-.07-.91,.25l-1.7,2.94c-.18,.32-.07,.73,.25,.91Z"/><path class="cls-1" d="M1.61,16.01l3.2-1.85c.35-.2,.47-.64,.27-.99-.2-.35-.64-.47-.99-.27l-3.2,1.85c-.35,.2-.47,.64-.27,.99,.2,.35,.64,.47,.99,.27Z"/><path class="cls-1" d="M4.07,11.31c.37,0,.67-.3,.67-.67s-.3-.67-.67-.67H.67c-.37,0-.67,.3-.67,.67s.3,.67,.67,.67h3.4Z"/><path class="cls-1" d="M1.62,6.43l2.94,1.7c.32,.18,.73,.07,.91-.25,.18-.32,.07-.73-.25-.91l-2.94-1.7c-.32-.18-.73-.07-.91,.25-.18,.32-.07,.73,.25,.91Z"/><path class="cls-1" d="M10.64,4.74c.37,0,.67-.3,.67-.67V.67c0-.37-.3-.67-.67-.67s-.67,.3-.67,.67v3.4c0,.37,.3,.67,.67,.67Z"/><path class="cls-1" d="M6.73,5.37c.18,.32,.59,.43,.91,.25,.32-.18,.43-.59,.25-.91l-1.7-2.94c-.18-.32-.59-.43-.91-.25-.32,.18-.43,.59-.25,.91l1.7,2.94Z"/></g></g></svg>