<?xml version="1.0" encoding="UTF-8"?><svg id="Layer_2" xmlns="http://www.w3.org/2000/svg" viewBox="0 0 33 19.2"><defs><style>.cls-1{fill:#fff;fill-rule:evenodd;}</style></defs><g id="pin"><g><path class="cls-1" d="M14.39,13.88c.09,0,.05,0,.12,0,.65,.06,1.25,.3,1.68,.81,.44,.51,.63,1.18,.63,1.85s-.23,1.32-.66,1.83c-.45,.52-1.08,.83-1.77,.83-.58,0-1.12-.22-1.55-.61-.42-.38-.76-.71-.88-1.26-.12-.53,.21-1.18,.76-1.18,.53,0,.55,.5,.77,1,.83,1.84,2.73-1.33,.9-1.3H4c-.55,0-.99-.44-.99-.99s.44-.99,.99-.99H14.39Z"/><path class="cls-1" d="M22.9,8.47c0-.55,.44-.99,.99-.99h6.7c.12,0,.21-.04,.28-.13,.12-.14,.15-.38,.15-.55,0-.19-.05-.39-.18-.53-.07-.08-.16-.15-.27-.15-.08,0-.16,.04-.22,.1-.11,.1-.18,.24-.21,.38-.12,.53-.64,.87-1.18,.76-.53-.12-.87-.64-.76-1.18,.12-.55,.4-1.06,.82-1.43,.43-.39,.97-.61,1.55-.61,.69,0,1.32,.31,1.77,.83,.44,.51,.66,1.16,.66,1.83s-.19,1.34-.63,1.85c-.43,.5-1.03,.74-1.68,.81-.06,0-.02,0-.12,0h-6.68c-.55,0-.99-.44-.99-.99Z"/><path class="cls-1" d="M21.56,9.97c.09,0,.05,0,.11,0,.95,.09,1.83,.42,2.46,1.15,.65,.75,.92,1.75,.92,2.73s-.33,1.95-.97,2.7c-.64,.74-1.53,1.19-2.51,1.19-.82,0-1.59-.32-2.19-.86-.61-.55-1.02-1.3-1.19-2.1-.12-.53,.23-1.06,.76-1.18,.53-.12,1.06,.23,1.18,.76,.09,.4,.28,.78,.58,1.05,.24,.22,.54,.35,.87,.35,.4,0,.76-.2,1.02-.5,.33-.39,.49-.9,.49-1.4s-.11-1.05-.43-1.43c-.28-.32-.63-.48-1.05-.47H3.54c-.55,0-.99-.44-.99-.99s.44-.99,.99-.99H21.56Z"/><path class="cls-1" d="M.99,5.79H19.04c.42,0,.78-.15,1.05-.47,.33-.38,.43-.95,.43-1.43s-.16-1.02-.49-1.4c-.26-.3-.61-.5-1.02-.5-.33,0-.63,.14-.87,.35-.3,.27-.5,.65-.58,1.05-.12,.53-.64,.87-1.18,.76-.53-.12-.87-.64-.76-1.18,.17-.8,.58-1.55,1.19-2.1,.61-.55,1.37-.86,2.19-.86,.98,0,1.88,.45,2.51,1.19,.64,.75,.97,1.72,.97,2.7s-.27,1.98-.92,2.73c-.63,.73-1.51,1.07-2.46,1.15-.06,0-.02,0-.11,0H.99c-.55,0-.99-.44-.99-.99,0-.55,.44-.99,.99-.99Z"/></g></g></svg>