<?xml version="1.0" encoding="UTF-8"?><svg id="Layer_2" xmlns="http://www.w3.org/2000/svg" viewBox="0 0 29.42 25"><defs><style>.cls-1{fill:#fff;fill-rule:evenodd;}</style></defs><g id="pin"><path class="cls-1" d="M15.43,.91V5.55c0,.5-.41,.91-.91,.91s-.91-.41-.91-.91V.91c0-.5,.41-.91,.91-.91s.91,.41,.91,.91h0Zm6.8,2.21l-2.32,4.02c-.25,.43-.81,.58-1.24,.33-.44-.25-.59-.81-.34-1.24l2.32-4.02c.25-.43,.81-.58,1.24-.33,.44,.25,.59,.81,.34,1.24h0Zm4.79,5.31c.43-.25,.58-.81,.33-1.24-.25-.44-.81-.59-1.24-.34l-4.02,2.32c-.43,.25-.58,.81-.33,1.24,.25,.44,.81,.59,1.24,.34l4.02-2.32h0Zm1.49,7h-4.64c-.5,0-.91-.41-.91-.91s.41-.91,.91-.91h4.64c.5,0,.91,.41,.91,.91s-.41,.91-.91,.91h0ZM.91,13.61H5.55c.5,0,.91,.41,.91,.91s-.41,.91-.91,.91H.91c-.5,0-.91-.41-.91-.91s.41-.91,.91-.91H.91ZM3.12,7.19l4.02,2.32c.43,.25,.58,.81,.33,1.24-.25,.44-.81,.59-1.24,.34l-4.02-2.32c-.43-.25-.58-.81-.33-1.24,.25-.44,.81-.59,1.24-.34h0ZM8.43,2.4c-.25-.43-.81-.58-1.24-.33-.44,.25-.59,.81-.34,1.24l2.32,4.02c.25,.43,.81,.58,1.24,.33,.44-.25,.59-.81,.34-1.24l-2.32-4.02h0ZM3,18.31H26.42c.5,0,.91,.41,.91,.91s-.41,.91-.91,.91H3c-.5,0-.91-.41-.91-.91s.41-.91,.91-.91h0Zm1.85,2.43H24.56c.5,0,.91,.41,.91,.91s-.41,.91-.91,.91H4.86c-.5,0-.91-.41-.91-.91s.41-.91,.91-.91h0Zm2.55,2.43h14.6c.5,0,.91,.41,.91,.91s-.41,.91-.91,.91H7.41c-.5,0-.91-.41-.91-.91s.41-.91,.91-.91h0Zm2.96-12.81c1.15-1.15,2.71-1.8,4.34-1.8s3.19,.64,4.34,1.8c1.15,1.15,1.8,2.71,1.8,4.34,0,.35-.03,.71-.09,1.06-.04,.23-.09,.46-.16,.69l-.1,.33H8.92l-.1-.33c-.07-.23-.12-.46-.16-.69-.06-.35-.09-.7-.09-1.06,0-1.63,.64-3.19,1.8-4.34Z"/></g></svg>